<svg width="24" height="24" viewBox="0 0 24 24" fill="none" xmlns="http://www.w3.org/2000/svg">
<path d="M16.1971 2H7.8129C4.17108 2 2 4.17 2 7.81V16.18C2 19.83 4.17108 22 7.8129 22H16.1871C19.8289 22 22 19.83 22 16.19V7.81C22.01 4.17 19.8389 2 16.1971 2ZM9.94396 13.27C9.26362 14.29 8.32315 15.12 7.2226 15.67C7.12255 15.72 7.00249 15.75 6.89244 15.75C6.6123 15.75 6.35217 15.6 6.2221 15.34C6.03201 14.97 6.18208 14.52 6.56227 14.33C7.43271 13.9 8.17308 13.24 8.70334 12.44C8.88343 12.17 8.88343 11.83 8.70334 11.56C8.16307 10.76 7.4227 10.1 6.56227 9.67C6.18208 9.49 6.03201 9.04 6.2221 8.66C6.40219 8.29 6.85242 8.14 7.2226 8.33C8.32315 8.88 9.26362 9.71 9.94396 10.73C10.4642 11.5 10.4642 12.5 9.94396 13.27ZM17.0075 15.75H13.0055C12.5953 15.75 12.2551 15.41 12.2551 15C12.2551 14.59 12.5953 14.25 13.0055 14.25H17.0075C17.4177 14.25 17.7579 14.59 17.7579 15C17.7579 15.41 17.4177 15.75 17.0075 15.75Z" fill="white"/>
</svg>
