<svg width="16" height="17" viewBox="0 0 16 17" fill="none" xmlns="http://www.w3.org/2000/svg">
<path d="M5.3335 5.8335V4.50016C5.3335 3.0274 6.5274 1.8335 8.00016 1.8335L12.0002 1.8335C13.4729 1.8335 14.6668 3.0274 14.6668 4.50016V8.50016C14.6668 9.97292 13.4729 11.1668 12.0002 11.1668H10.6668M5.3335 5.8335H4.00016C2.5274 5.8335 1.3335 7.0274 1.3335 8.50016V12.5002C1.3335 13.9729 2.5274 15.1668 4.00016 15.1668H8.00016C9.47292 15.1668 10.6668 13.9729 10.6668 12.5002V11.1668M5.3335 5.8335H8.00016C9.47292 5.8335 10.6668 7.0274 10.6668 8.50016V11.1668" stroke="#8B8B8C" stroke-linejoin="round"/>
</svg>
