<svg width="30" height="34" viewBox="0 0 30 34" fill="none" xmlns="http://www.w3.org/2000/svg">
<path opacity="0.8" fill-rule="evenodd" clip-rule="evenodd" d="M30 23.6668C30 29.1897 25.3506 33.6668 19.6154 33.6668H0V27.0002H19.6154C21.5271 27.0002 23.0769 25.5078 23.0769 23.6668C23.0769 21.8259 21.5271 20.3335 19.6154 20.3335H12.6923V13.6668H19.6154C21.5271 13.6668 23.0769 12.1744 23.0769 10.3335C23.0769 8.49255 21.5271 7.00016 19.6154 7.00016H0V0.333496H19.6154C25.3506 0.333496 30 4.81065 30 10.3335C30 12.8947 29.0001 15.231 27.3558 17.0002C29.0001 18.7694 30 21.1056 30 23.6668Z" fill="#2468E4"/>
<path opacity="0.12" d="M0 27.0002H16.8476C13.2689 31.0483 7.57129 33.6668 1.15385 33.6668C0.766506 33.6668 0.381788 33.6573 0 33.6385V27.0002ZM20.3769 20.3335H13.8462V13.6668H20.3769C20.6342 14.7439 20.7692 15.8586 20.7692 17.0002C20.7692 18.1417 20.6342 19.2565 20.3769 20.3335ZM16.8476 7.00016H0V0.361853C0.381788 0.343035 0.766506 0.333496 1.15385 0.333496C7.57129 0.333496 13.2689 2.95201 16.8476 7.00016Z" fill="#2468E4"/>
<path d="M0 0.333496C9.55877 0.333496 17.3077 7.79542 17.3077 17.0002C17.3077 26.2049 9.55877 33.6668 0 33.6668V27.0002C5.73527 27.0002 10.3846 22.523 10.3846 17.0002C10.3846 11.4773 5.73527 7.00016 0 7.00016V0.333496Z" fill="#2468E4"/>
</svg>
