<svg width="20" height="20" viewBox="0 0 20 20" fill="none" xmlns="http://www.w3.org/2000/svg">
<path fill-rule="evenodd" clip-rule="evenodd" d="M13.7196 1.97811C12.7678 1.87499 11.5682 1.87499 10.0377 1.875H9.96229C8.43185 1.87499 7.23218 1.87499 6.2804 1.97811C5.30912 2.08334 4.52213 2.30194 3.8502 2.79013C3.44341 3.08568 3.08568 3.44341 2.79013 3.8502C2.30194 4.52213 2.08334 5.30912 1.97811 6.2804C1.87499 7.23218 1.87499 8.43185 1.875 9.96229V10.0377C1.87499 11.5682 1.87499 12.7678 1.97811 13.7196C2.08334 14.6909 2.30194 15.4779 2.79013 16.1498C3.08567 16.5566 3.44341 16.9143 3.8502 17.2099C4.52213 17.6981 5.30912 17.9167 6.2804 18.0219C7.23216 18.125 8.4318 18.125 9.96221 18.125H10.0377C11.5681 18.125 12.7678 18.125 13.7196 18.0219C14.6909 17.9167 15.4779 17.6981 16.1498 17.2099C16.5566 16.9143 16.9143 16.5566 17.2099 16.1498C17.6981 15.4779 17.9167 14.6909 18.0219 13.7196C18.125 12.7678 18.125 11.5682 18.125 10.0378V9.96227C18.125 8.43187 18.125 7.23216 18.0219 6.2804C17.9167 5.30912 17.6981 4.52213 17.2099 3.8502C16.9143 3.44341 16.5566 3.08567 16.1498 2.79013C15.4779 2.30194 14.6909 2.08334 13.7196 1.97811ZM4.58493 3.8014C5.00826 3.49383 5.55011 3.31454 6.41504 3.22083C7.29166 3.12586 8.42369 3.125 10 3.125C11.5763 3.125 12.7083 3.12586 13.585 3.22083C14.4499 3.31454 14.9917 3.49383 15.4151 3.8014C15.7157 4.01985 15.9802 4.28426 16.1986 4.58493C16.5062 5.00826 16.6855 5.55011 16.7792 6.41504C16.8741 7.29166 16.875 8.42369 16.875 10C16.875 11.5763 16.8741 12.7083 16.7792 13.585C16.6855 14.4499 16.5062 14.9917 16.1986 15.4151C15.9802 15.7157 15.7157 15.9802 15.4151 16.1986C14.9917 16.5062 14.4499 16.6855 13.585 16.7792C12.7083 16.8741 11.5763 16.875 10 16.875C8.42369 16.875 7.29166 16.8741 6.41504 16.7792C5.55011 16.6855 5.00826 16.5062 4.58493 16.1986C4.28426 15.9802 4.01985 15.7157 3.8014 15.4151C3.49383 14.9917 3.31454 14.4499 3.22083 13.585C3.12586 12.7083 3.125 11.5763 3.125 10C3.125 8.42369 3.12586 7.29166 3.22083 6.41504C3.31454 5.55011 3.49383 5.00826 3.8014 4.58493C4.01985 4.28426 4.28426 4.01985 4.58493 3.8014Z" fill="#2468E4"/>
<path fill-rule="evenodd" clip-rule="evenodd" d="M6.41504 3.22083C5.55011 3.31454 5.00826 3.49383 4.58493 3.8014C4.28426 4.01985 4.01985 4.28426 3.8014 4.58493C3.49383 5.00826 3.31454 5.55011 3.22083 6.41504C3.12586 7.29166 3.125 8.42369 3.125 10C3.125 11.5763 3.12586 12.7083 3.22083 13.585C3.31454 14.4499 3.49383 14.9917 3.8014 15.4151C4.01985 15.7157 4.28426 15.9802 4.58493 16.1986C5.00826 16.5062 5.55011 16.6855 6.41504 16.7792C7.29166 16.8741 8.42369 16.875 10 16.875C11.5763 16.875 12.7083 16.8741 13.585 16.7792C14.4499 16.6855 14.9917 16.5062 15.4151 16.1986C15.7157 15.9802 15.9802 15.7157 16.1986 15.4151C16.5062 14.9917 16.6855 14.4499 16.7792 13.585C16.8741 12.7083 16.875 11.5763 16.875 10C16.875 8.42369 16.8741 7.29166 16.7792 6.41504C16.6855 5.55011 16.5062 5.00826 16.1986 4.58493C15.9802 4.28426 15.7157 4.01985 15.4151 3.8014C14.9917 3.49383 14.4499 3.31454 13.585 3.22083C12.7083 3.12586 11.5763 3.125 10 3.125C8.42369 3.125 7.29166 3.12586 6.41504 3.22083ZM10.625 6.66667C10.625 6.32149 10.3452 6.04167 10 6.04167C9.65482 6.04167 9.375 6.32149 9.375 6.66667V12.4468L9.33874 12.4181C9.06988 12.2022 8.75027 11.8811 8.27545 11.402L7.11058 10.2267C6.86759 9.98154 6.47187 9.97977 6.2267 10.2228C5.98154 10.4657 5.97977 10.8615 6.22276 11.1066L7.41305 12.3076C7.85586 12.7544 8.22519 13.1271 8.55603 13.3928C8.90305 13.6714 9.26776 13.8834 9.71209 13.9401C9.80767 13.9522 9.90384 13.9583 10 13.9583C10.0962 13.9583 10.1923 13.9522 10.2879 13.9401C10.7322 13.8834 11.0969 13.6714 11.444 13.3928C11.7748 13.1271 12.1441 12.7544 12.5869 12.3076L13.7772 11.1066C14.0202 10.8615 14.0185 10.4657 13.7733 10.2228C13.5281 9.97977 13.1324 9.98154 12.8894 10.2267L11.7246 11.402C11.2497 11.8811 10.9301 12.2022 10.6613 12.4181L10.625 12.4468V6.66667Z" fill="#2468E4"/>
<path fill-rule="evenodd" clip-rule="evenodd" d="M10.6253 6.66406C10.6253 6.31888 10.3455 6.03906 10.0003 6.03906C9.65515 6.03906 9.37533 6.31888 9.37533 6.66406V12.4442L9.33907 12.4155C9.07021 12.1996 8.7506 11.8785 8.27577 11.3994L7.1109 10.2241C6.86792 9.97893 6.47219 9.97717 6.22703 10.2202C5.98186 10.4631 5.9801 10.8589 6.22308 11.104L7.41338 12.305C7.85619 12.7518 8.22552 13.1245 8.55636 13.3902C8.90338 13.6688 9.26808 13.8808 9.71241 13.9375C9.808 13.9496 9.90416 13.9557 10.0003 13.9557C10.0965 13.9557 10.1926 13.9496 10.2882 13.9375C10.7326 13.8808 11.0973 13.6688 11.4443 13.3902C11.7751 13.1245 12.1445 12.7518 12.5873 12.305L13.7776 11.104C14.0206 10.8589 14.0188 10.4631 13.7736 10.2202C13.5285 9.97717 13.1327 9.97893 12.8898 10.2241L11.7249 11.3994C11.25 11.8785 10.9304 12.1996 10.6616 12.4155L10.6253 12.4442V6.66406Z" fill="white"/>
</svg>
