<svg width="40" height="40" viewBox="0 0 40 40" fill="none" xmlns="http://www.w3.org/2000/svg">
<path d="M21.6667 3.33325V9.99992C21.6667 13.6818 24.6514 16.6666 28.3333 16.6666L35 16.6666M5 9.99992L5 29.9999C5 33.6818 7.98477 36.6666 11.6667 36.6666H28.3333C32.0152 36.6666 35 33.6818 35 29.9999V19.428C35 17.6599 34.2976 15.9642 33.0474 14.714L23.6193 5.28587C22.369 4.03563 20.6734 3.33325 18.9052 3.33325L11.6667 3.33325C7.98477 3.33325 5 6.31802 5 9.99992Z" stroke="#2468E4" stroke-width="1.5" stroke-linejoin="round"/>
<path d="M9.51172 21.8311H15.3337V23.0444H13.1803V30H11.6593V23.0444H9.51172V21.8311Z" fill="#2468E4"/>
<path d="M21.9873 21.8311H23.645L21.0872 25.9155L23.645 30H21.9873L19.9992 26.8953L18.0054 30H16.3534L18.9054 25.9155L16.3534 21.8311H18.0054L19.9992 24.9357L21.9873 21.8311Z" fill="#2468E4"/>
<path d="M24.6647 21.8311H30.4867V23.0444H28.3333V30H26.8123V23.0444H24.6647V21.8311Z" fill="#2468E4"/>
</svg>
