<svg width="24" height="24" viewBox="0 0 24 24" xmlns="http://www.w3.org/2000/svg"><path d="M7.02399 2.31031C7.77495 2.5647 8.48936 2.91636 9.14899 3.35631C10.0806 3.11822 11.0385 2.9986 12 3.00031C12.993 3.00031 13.951 3.12431 14.849 3.35531C15.5084 2.91578 16.2224 2.56446 16.973 2.31031C17.67 2.07331 18.663 1.68931 19.253 2.34231C19.653 2.78631 19.753 3.53031 19.824 4.09831C19.904 4.73231 19.923 5.55831 19.713 6.37831C20.516 7.41531 21 8.65231 21 10.0003C21 12.0423 19.894 13.8153 18.257 15.0433C17.4692 15.6268 16.5954 16.0843 15.667 16.3993C15.881 16.8893 16 17.4313 16 18.0003V21.0003C16 21.2655 15.8946 21.5199 15.7071 21.7074C15.5196 21.8949 15.2652 22.0003 15 22.0003H8.99999C8.73477 22.0003 8.48041 21.8949 8.29288 21.7074C8.10534 21.5199 7.99999 21.2655 7.99999 21.0003V20.0093C7.04499 20.1263 6.24399 20.0223 5.56299 19.7333C4.85099 19.4313 4.35499 18.9633 3.98199 18.5153C3.62799 18.0913 3.24199 17.1353 2.68399 16.9493C2.55936 16.9078 2.44413 16.8422 2.34487 16.7561C2.24562 16.6701 2.16427 16.5654 2.1055 16.4479C1.98678 16.2107 1.96718 15.936 2.05099 15.6843C2.13479 15.4326 2.31515 15.2245 2.55239 15.1058C2.78962 14.9871 3.06429 14.9675 3.31599 15.0513C3.98199 15.2733 4.41599 15.7533 4.71299 16.1393C5.19299 16.7593 5.58299 17.5693 6.34299 17.8923C6.65599 18.0253 7.11499 18.1123 7.83299 18.0143L7.99999 17.9803C8.00189 17.4361 8.11522 16.898 8.33299 16.3993C7.40457 16.0843 6.5308 15.6269 5.74299 15.0433C4.10599 13.8153 2.99999 12.0433 2.99999 10.0003C2.99999 8.65431 3.48299 7.41831 4.28399 6.38231C4.07399 5.56231 4.09199 4.73431 4.17199 4.09931L4.17699 4.06131C4.24999 3.47931 4.33499 2.79431 4.74299 2.34231C5.33299 1.68931 6.32698 2.07431 7.02298 2.31131L7.02399 2.31031Z" fill="currentColor"/></svg>
