<svg width="168" height="65" viewBox="0 0 168 65" fill="none" xmlns="http://www.w3.org/2000/svg">
<mask id="path-1-outside-1_3042_6219" maskUnits="userSpaceOnUse" x="5.30096" y="2" width="22" height="30" fill="black">
<rect fill="white" x="5.30096" y="2" width="22" height="30"/>
<path d="M26.6989 23.5486C26.6989 21.9157 26.1805 20.3653 25.1998 19.0651C24.2959 17.8667 23.0283 16.9564 21.6133 16.482L20.2466 13.5926C20.1699 13.4305 20.0083 13.3255 19.8289 13.3215C19.6486 13.3163 19.4834 13.4149 19.3994 13.5735L18.133 15.965C17.9533 15.4388 17.5981 14.9842 17.1129 14.6821C16.178 14.0994 15.2974 13.4633 14.4957 12.7914C14.2951 12.6232 13.9962 12.6496 13.8281 12.8502C13.6599 13.0508 13.6863 13.3497 13.8869 13.5178C14.7225 14.2182 15.6391 14.8806 16.6118 15.4867C17.043 15.7553 17.3068 16.2212 17.3173 16.7325C17.3228 17.0226 17.2462 17.3068 17.0961 17.554L16.3271 18.8192C15.9909 19.3724 15.9281 20.0373 16.1546 20.6436C16.381 21.2497 16.8643 21.7105 17.4806 21.9077L17.6483 21.9614C17.5818 22.1241 17.4934 22.321 17.3828 22.531C17.1025 22.3913 16.7914 22.317 16.4712 22.317C15.3806 22.317 14.4867 23.1742 14.4278 24.25C14.1795 24.1789 13.922 24.0695 13.6568 23.9196C13.5863 23.8797 13.5067 23.8586 13.4257 23.8582C13.095 23.8567 12.7735 23.7841 12.4701 23.6423C12.0248 23.4345 11.651 23.0842 11.4176 22.6558C11.3791 22.5851 11.3232 22.5254 11.2551 22.4823C10.7159 22.1404 10.3506 21.6089 10.2263 20.9854C10.1638 20.6731 10.1658 20.358 10.2324 20.0491C10.2783 19.8365 10.1735 19.62 9.97837 19.524C9.32798 19.2039 8.87314 18.6134 8.73068 17.9048C8.65275 17.5131 8.67736 17.1071 8.80178 16.7305C8.86625 16.5355 8.79773 16.3212 8.63214 16.1998C8.0063 15.7406 7.57766 15.0679 7.42508 14.3058C7.28246 13.5922 7.39555 12.8481 7.74347 12.2106C7.82589 12.0596 7.81998 11.8758 7.72805 11.7303C7.52494 11.4091 7.38369 11.0551 7.30811 10.6785C7.13929 9.83516 7.33195 8.95038 7.83688 8.25093C7.94461 8.10164 7.9562 7.90345 7.86646 7.74272C7.70798 7.45862 7.59587 7.15451 7.53315 6.83804C7.34907 5.91782 7.59904 5.14574 7.88593 4.61227C8.30708 6.20033 9.48241 9.29677 12.6489 12.397C12.8359 12.5801 13.1359 12.577 13.3191 12.3899C13.5022 12.2029 13.4991 11.9029 13.312 11.7197C11.1259 9.57934 9.963 7.43834 9.37238 6.0191C8.73172 4.47916 8.60676 3.43158 8.60572 3.42201C8.58593 3.2428 8.46622 3.09033 8.2968 3.02864C8.12743 2.9669 7.93761 3.00671 7.80729 3.13134C7.73937 3.19626 6.14858 4.74735 6.60385 7.02332C6.66674 7.34039 6.76764 7.64833 6.90468 7.94195C6.36946 8.81109 6.17794 9.86037 6.37908 10.8649C6.45942 11.2654 6.59696 11.6465 6.78902 12.001C6.43213 12.776 6.32779 13.6501 6.496 14.4918C6.67335 15.3779 7.13683 16.1715 7.81336 16.7579C7.71826 17.1942 7.71361 17.6489 7.80155 18.0908C7.97912 18.9741 8.49974 19.7266 9.25021 20.201C9.21691 20.5236 9.23249 20.8486 9.29702 21.1712C9.46442 22.0111 9.94167 22.7327 10.6462 23.2158C10.9778 23.7721 11.4792 24.2259 12.0692 24.5013C12.4595 24.6836 12.8717 24.7849 13.2964 24.8032C13.7512 25.047 14.1988 25.1993 14.6325 25.2612C14.9718 25.9505 15.6872 26.4093 16.4713 26.4093C17.5995 26.4093 18.5173 25.4914 18.5173 24.3632C18.5173 23.9266 18.3759 23.5031 18.1221 23.1557C18.2206 22.9816 18.306 22.8127 18.379 22.6565H22.4079C22.6697 22.6565 22.8818 22.4443 22.8818 22.1826C22.8818 21.9208 22.6697 21.7087 22.4079 21.7087H18.7326C18.7554 21.4896 18.6228 21.278 18.4058 21.2086L17.7696 21.0051C17.4318 20.897 17.1668 20.6443 17.0427 20.3121C16.9185 19.9796 16.953 19.6149 17.1373 19.3116L17.9064 18.0463C18.0787 17.7626 18.1898 17.449 18.2378 17.1233C18.3227 17.11 18.4081 17.0981 18.494 17.0882C18.7418 17.0593 18.9954 17.0447 19.2479 17.0447C19.8895 17.0447 20.5223 17.1377 21.1293 17.3215C22.4382 17.7161 23.6151 18.5381 24.4434 19.6361C24.9197 20.2676 25.2706 20.9669 25.4886 21.7087H23.7666C23.5049 21.7087 23.2927 21.9208 23.2927 22.1826C23.2927 22.4443 23.5049 22.6565 23.7666 22.6565H25.69C25.73 22.9499 25.7514 23.2476 25.7514 23.5487V24.5117H21.4533C21.2774 24.5117 21.1161 24.6091 21.0341 24.7646L19.8107 27.0849C19.7221 27.2529 19.7424 27.4576 19.8622 27.605L21.8523 30.0522H12.7435V25.737C12.7435 25.4752 12.5313 25.2631 12.2696 25.2631C12.0079 25.2631 11.7957 25.4752 11.7957 25.737V30.5261C11.7957 30.7878 12.0079 31 12.2696 31H22.8481C23.031 31 23.1976 30.8948 23.2761 30.7297C23.3546 30.5646 23.3312 30.369 23.2158 30.2271L20.7948 27.2499L21.7388 25.4595H25.7512V27.2016C25.7512 27.4633 25.9634 27.6755 26.2251 27.6755C26.4868 27.6755 26.699 27.4633 26.699 27.2016L26.6989 23.5486ZM16.471 25.4613C15.9903 25.4613 15.5577 25.1404 15.4189 24.681C15.4189 24.6809 15.4189 24.6808 15.4189 24.6806C15.3879 24.5785 15.3722 24.4716 15.3722 24.3631C15.3722 23.7575 15.8652 23.2648 16.4711 23.2648C16.7483 23.2648 17.0125 23.3681 17.2161 23.5566C17.4439 23.7664 17.5694 24.0528 17.5694 24.3631C17.5693 24.9686 17.0766 25.4613 16.471 25.4613ZM19.2476 16.0967C19.2102 16.0967 19.1726 16.0978 19.1351 16.0983L19.7943 14.8533L20.427 16.1908C20.0386 16.1289 19.6446 16.0967 19.2476 16.0967Z"/>
</mask>
<path d="M26.6989 23.5486C26.6989 21.9157 26.1805 20.3653 25.1998 19.0651C24.2959 17.8667 23.0283 16.9564 21.6133 16.482L20.2466 13.5926C20.1699 13.4305 20.0083 13.3255 19.8289 13.3215C19.6486 13.3163 19.4834 13.4149 19.3994 13.5735L18.133 15.965C17.9533 15.4388 17.5981 14.9842 17.1129 14.6821C16.178 14.0994 15.2974 13.4633 14.4957 12.7914C14.2951 12.6232 13.9962 12.6496 13.8281 12.8502C13.6599 13.0508 13.6863 13.3497 13.8869 13.5178C14.7225 14.2182 15.6391 14.8806 16.6118 15.4867C17.043 15.7553 17.3068 16.2212 17.3173 16.7325C17.3228 17.0226 17.2462 17.3068 17.0961 17.554L16.3271 18.8192C15.9909 19.3724 15.9281 20.0373 16.1546 20.6436C16.381 21.2497 16.8643 21.7105 17.4806 21.9077L17.6483 21.9614C17.5818 22.1241 17.4934 22.321 17.3828 22.531C17.1025 22.3913 16.7914 22.317 16.4712 22.317C15.3806 22.317 14.4867 23.1742 14.4278 24.25C14.1795 24.1789 13.922 24.0695 13.6568 23.9196C13.5863 23.8797 13.5067 23.8586 13.4257 23.8582C13.095 23.8567 12.7735 23.7841 12.4701 23.6423C12.0248 23.4345 11.651 23.0842 11.4176 22.6558C11.3791 22.5851 11.3232 22.5254 11.2551 22.4823C10.7159 22.1404 10.3506 21.6089 10.2263 20.9854C10.1638 20.6731 10.1658 20.358 10.2324 20.0491C10.2783 19.8365 10.1735 19.62 9.97837 19.524C9.32798 19.2039 8.87314 18.6134 8.73068 17.9048C8.65275 17.5131 8.67736 17.1071 8.80178 16.7305C8.86625 16.5355 8.79773 16.3212 8.63214 16.1998C8.0063 15.7406 7.57766 15.0679 7.42508 14.3058C7.28246 13.5922 7.39555 12.8481 7.74347 12.2106C7.82589 12.0596 7.81998 11.8758 7.72805 11.7303C7.52494 11.4091 7.38369 11.0551 7.30811 10.6785C7.13929 9.83516 7.33195 8.95038 7.83688 8.25093C7.94461 8.10164 7.9562 7.90345 7.86646 7.74272C7.70798 7.45862 7.59587 7.15451 7.53315 6.83804C7.34907 5.91782 7.59904 5.14574 7.88593 4.61227C8.30708 6.20033 9.48241 9.29677 12.6489 12.397C12.8359 12.5801 13.1359 12.577 13.3191 12.3899C13.5022 12.2029 13.4991 11.9029 13.312 11.7197C11.1259 9.57934 9.963 7.43834 9.37238 6.0191C8.73172 4.47916 8.60676 3.43158 8.60572 3.42201C8.58593 3.2428 8.46622 3.09033 8.2968 3.02864C8.12743 2.9669 7.93761 3.00671 7.80729 3.13134C7.73937 3.19626 6.14858 4.74735 6.60385 7.02332C6.66674 7.34039 6.76764 7.64833 6.90468 7.94195C6.36946 8.81109 6.17794 9.86037 6.37908 10.8649C6.45942 11.2654 6.59696 11.6465 6.78902 12.001C6.43213 12.776 6.32779 13.6501 6.496 14.4918C6.67335 15.3779 7.13683 16.1715 7.81336 16.7579C7.71826 17.1942 7.71361 17.6489 7.80155 18.0908C7.97912 18.9741 8.49974 19.7266 9.25021 20.201C9.21691 20.5236 9.23249 20.8486 9.29702 21.1712C9.46442 22.0111 9.94167 22.7327 10.6462 23.2158C10.9778 23.7721 11.4792 24.2259 12.0692 24.5013C12.4595 24.6836 12.8717 24.7849 13.2964 24.8032C13.7512 25.047 14.1988 25.1993 14.6325 25.2612C14.9718 25.9505 15.6872 26.4093 16.4713 26.4093C17.5995 26.4093 18.5173 25.4914 18.5173 24.3632C18.5173 23.9266 18.3759 23.5031 18.1221 23.1557C18.2206 22.9816 18.306 22.8127 18.379 22.6565H22.4079C22.6697 22.6565 22.8818 22.4443 22.8818 22.1826C22.8818 21.9208 22.6697 21.7087 22.4079 21.7087H18.7326C18.7554 21.4896 18.6228 21.278 18.4058 21.2086L17.7696 21.0051C17.4318 20.897 17.1668 20.6443 17.0427 20.3121C16.9185 19.9796 16.953 19.6149 17.1373 19.3116L17.9064 18.0463C18.0787 17.7626 18.1898 17.449 18.2378 17.1233C18.3227 17.11 18.4081 17.0981 18.494 17.0882C18.7418 17.0593 18.9954 17.0447 19.2479 17.0447C19.8895 17.0447 20.5223 17.1377 21.1293 17.3215C22.4382 17.7161 23.6151 18.5381 24.4434 19.6361C24.9197 20.2676 25.2706 20.9669 25.4886 21.7087H23.7666C23.5049 21.7087 23.2927 21.9208 23.2927 22.1826C23.2927 22.4443 23.5049 22.6565 23.7666 22.6565H25.69C25.73 22.9499 25.7514 23.2476 25.7514 23.5487V24.5117H21.4533C21.2774 24.5117 21.1161 24.6091 21.0341 24.7646L19.8107 27.0849C19.7221 27.2529 19.7424 27.4576 19.8622 27.605L21.8523 30.0522H12.7435V25.737C12.7435 25.4752 12.5313 25.2631 12.2696 25.2631C12.0079 25.2631 11.7957 25.4752 11.7957 25.737V30.5261C11.7957 30.7878 12.0079 31 12.2696 31H22.8481C23.031 31 23.1976 30.8948 23.2761 30.7297C23.3546 30.5646 23.3312 30.369 23.2158 30.2271L20.7948 27.2499L21.7388 25.4595H25.7512V27.2016C25.7512 27.4633 25.9634 27.6755 26.2251 27.6755C26.4868 27.6755 26.699 27.4633 26.699 27.2016L26.6989 23.5486ZM16.471 25.4613C15.9903 25.4613 15.5577 25.1404 15.4189 24.681C15.4189 24.6809 15.4189 24.6808 15.4189 24.6806C15.3879 24.5785 15.3722 24.4716 15.3722 24.3631C15.3722 23.7575 15.8652 23.2648 16.4711 23.2648C16.7483 23.2648 17.0125 23.3681 17.2161 23.5566C17.4439 23.7664 17.5694 24.0528 17.5694 24.3631C17.5693 24.9686 17.0766 25.4613 16.471 25.4613ZM19.2476 16.0967C19.2102 16.0967 19.1726 16.0978 19.1351 16.0983L19.7943 14.8533L20.427 16.1908C20.0386 16.1289 19.6446 16.0967 19.2476 16.0967Z" fill="#2468E4"/>
<path d="M26.6989 23.5486C26.6989 21.9157 26.1805 20.3653 25.1998 19.0651C24.2959 17.8667 23.0283 16.9564 21.6133 16.482L20.2466 13.5926C20.1699 13.4305 20.0083 13.3255 19.8289 13.3215C19.6486 13.3163 19.4834 13.4149 19.3994 13.5735L18.133 15.965C17.9533 15.4388 17.5981 14.9842 17.1129 14.6821C16.178 14.0994 15.2974 13.4633 14.4957 12.7914C14.2951 12.6232 13.9962 12.6496 13.8281 12.8502C13.6599 13.0508 13.6863 13.3497 13.8869 13.5178C14.7225 14.2182 15.6391 14.8806 16.6118 15.4867C17.043 15.7553 17.3068 16.2212 17.3173 16.7325C17.3228 17.0226 17.2462 17.3068 17.0961 17.554L16.3271 18.8192C15.9909 19.3724 15.9281 20.0373 16.1546 20.6436C16.381 21.2497 16.8643 21.7105 17.4806 21.9077L17.6483 21.9614C17.5818 22.1241 17.4934 22.321 17.3828 22.531C17.1025 22.3913 16.7914 22.317 16.4712 22.317C15.3806 22.317 14.4867 23.1742 14.4278 24.25C14.1795 24.1789 13.922 24.0695 13.6568 23.9196C13.5863 23.8797 13.5067 23.8586 13.4257 23.8582C13.095 23.8567 12.7735 23.7841 12.4701 23.6423C12.0248 23.4345 11.651 23.0842 11.4176 22.6558C11.3791 22.5851 11.3232 22.5254 11.2551 22.4823C10.7159 22.1404 10.3506 21.6089 10.2263 20.9854C10.1638 20.6731 10.1658 20.358 10.2324 20.0491C10.2783 19.8365 10.1735 19.62 9.97837 19.524C9.32798 19.2039 8.87314 18.6134 8.73068 17.9048C8.65275 17.5131 8.67736 17.1071 8.80178 16.7305C8.86625 16.5355 8.79773 16.3212 8.63214 16.1998C8.0063 15.7406 7.57766 15.0679 7.42508 14.3058C7.28246 13.5922 7.39555 12.8481 7.74347 12.2106C7.82589 12.0596 7.81998 11.8758 7.72805 11.7303C7.52494 11.4091 7.38369 11.0551 7.30811 10.6785C7.13929 9.83516 7.33195 8.95038 7.83688 8.25093C7.94461 8.10164 7.9562 7.90345 7.86646 7.74272C7.70798 7.45862 7.59587 7.15451 7.53315 6.83804C7.34907 5.91782 7.59904 5.14574 7.88593 4.61227C8.30708 6.20033 9.48241 9.29677 12.6489 12.397C12.8359 12.5801 13.1359 12.577 13.3191 12.3899C13.5022 12.2029 13.4991 11.9029 13.312 11.7197C11.1259 9.57934 9.963 7.43834 9.37238 6.0191C8.73172 4.47916 8.60676 3.43158 8.60572 3.42201C8.58593 3.2428 8.46622 3.09033 8.2968 3.02864C8.12743 2.9669 7.93761 3.00671 7.80729 3.13134C7.73937 3.19626 6.14858 4.74735 6.60385 7.02332C6.66674 7.34039 6.76764 7.64833 6.90468 7.94195C6.36946 8.81109 6.17794 9.86037 6.37908 10.8649C6.45942 11.2654 6.59696 11.6465 6.78902 12.001C6.43213 12.776 6.32779 13.6501 6.496 14.4918C6.67335 15.3779 7.13683 16.1715 7.81336 16.7579C7.71826 17.1942 7.71361 17.6489 7.80155 18.0908C7.97912 18.9741 8.49974 19.7266 9.25021 20.201C9.21691 20.5236 9.23249 20.8486 9.29702 21.1712C9.46442 22.0111 9.94167 22.7327 10.6462 23.2158C10.9778 23.7721 11.4792 24.2259 12.0692 24.5013C12.4595 24.6836 12.8717 24.7849 13.2964 24.8032C13.7512 25.047 14.1988 25.1993 14.6325 25.2612C14.9718 25.9505 15.6872 26.4093 16.4713 26.4093C17.5995 26.4093 18.5173 25.4914 18.5173 24.3632C18.5173 23.9266 18.3759 23.5031 18.1221 23.1557C18.2206 22.9816 18.306 22.8127 18.379 22.6565H22.4079C22.6697 22.6565 22.8818 22.4443 22.8818 22.1826C22.8818 21.9208 22.6697 21.7087 22.4079 21.7087H18.7326C18.7554 21.4896 18.6228 21.278 18.4058 21.2086L17.7696 21.0051C17.4318 20.897 17.1668 20.6443 17.0427 20.3121C16.9185 19.9796 16.953 19.6149 17.1373 19.3116L17.9064 18.0463C18.0787 17.7626 18.1898 17.449 18.2378 17.1233C18.3227 17.11 18.4081 17.0981 18.494 17.0882C18.7418 17.0593 18.9954 17.0447 19.2479 17.0447C19.8895 17.0447 20.5223 17.1377 21.1293 17.3215C22.4382 17.7161 23.6151 18.5381 24.4434 19.6361C24.9197 20.2676 25.2706 20.9669 25.4886 21.7087H23.7666C23.5049 21.7087 23.2927 21.9208 23.2927 22.1826C23.2927 22.4443 23.5049 22.6565 23.7666 22.6565H25.69C25.73 22.9499 25.7514 23.2476 25.7514 23.5487V24.5117H21.4533C21.2774 24.5117 21.1161 24.6091 21.0341 24.7646L19.8107 27.0849C19.7221 27.2529 19.7424 27.4576 19.8622 27.605L21.8523 30.0522H12.7435V25.737C12.7435 25.4752 12.5313 25.2631 12.2696 25.2631C12.0079 25.2631 11.7957 25.4752 11.7957 25.737V30.5261C11.7957 30.7878 12.0079 31 12.2696 31H22.8481C23.031 31 23.1976 30.8948 23.2761 30.7297C23.3546 30.5646 23.3312 30.369 23.2158 30.2271L20.7948 27.2499L21.7388 25.4595H25.7512V27.2016C25.7512 27.4633 25.9634 27.6755 26.2251 27.6755C26.4868 27.6755 26.699 27.4633 26.699 27.2016L26.6989 23.5486ZM16.471 25.4613C15.9903 25.4613 15.5577 25.1404 15.4189 24.681C15.4189 24.6809 15.4189 24.6808 15.4189 24.6806C15.3879 24.5785 15.3722 24.4716 15.3722 24.3631C15.3722 23.7575 15.8652 23.2648 16.4711 23.2648C16.7483 23.2648 17.0125 23.3681 17.2161 23.5566C17.4439 23.7664 17.5694 24.0528 17.5694 24.3631C17.5693 24.9686 17.0766 25.4613 16.471 25.4613ZM19.2476 16.0967C19.2102 16.0967 19.1726 16.0978 19.1351 16.0983L19.7943 14.8533L20.427 16.1908C20.0386 16.1289 19.6446 16.0967 19.2476 16.0967Z" stroke="#2468E4" stroke-width="0.4" mask="url(#path-1-outside-1_3042_6219)"/>
<path d="M39.9955 16.8054H34.792V13.739H48.9623V16.8054H43.7587V30H39.9955V16.8054ZM65.9007 13.739V30H62.1375V23.333H54.7503V30H50.9871V13.739H54.7503V20.1505H62.1375V13.739H65.9007ZM77.623 30.2788C75.9349 30.2788 74.4095 29.9148 73.0467 29.187C71.6993 28.4591 70.6385 27.4602 69.8642 26.1903C69.1053 24.9049 68.7259 23.4646 68.7259 21.8695C68.7259 20.2744 69.1053 18.8419 69.8642 17.5719C70.6385 16.2866 71.6993 15.2799 73.0467 14.552C74.4095 13.8242 75.9349 13.4602 77.623 13.4602C79.311 13.4602 80.8287 13.8242 82.1761 14.552C83.5234 15.2799 84.5842 16.2866 85.3586 17.5719C86.1329 18.8419 86.5201 20.2744 86.5201 21.8695C86.5201 23.4646 86.1329 24.9049 85.3586 26.1903C84.5842 27.4602 83.5234 28.4591 82.1761 29.187C80.8287 29.9148 79.311 30.2788 77.623 30.2788ZM77.623 27.073C78.5832 27.073 79.4504 26.8562 80.2248 26.4226C80.9991 25.9735 81.6031 25.354 82.0367 24.5642C82.4858 23.7744 82.7104 22.8761 82.7104 21.8695C82.7104 20.8629 82.4858 19.9646 82.0367 19.1748C81.6031 18.385 80.9991 17.7733 80.2248 17.3396C79.4504 16.8905 78.5832 16.666 77.623 16.666C76.6628 16.666 75.7956 16.8905 75.0212 17.3396C74.2469 17.7733 73.6352 18.385 73.1861 19.1748C72.7524 19.9646 72.5356 20.8629 72.5356 21.8695C72.5356 22.8761 72.7524 23.7744 73.1861 24.5642C73.6352 25.354 74.2469 25.9735 75.0212 26.4226C75.7956 26.8562 76.6628 27.073 77.623 27.073ZM99.7089 30L96.5729 25.4701H96.387H93.1116V30H89.3483V13.739H96.387C97.8273 13.739 99.074 13.979 100.127 14.4591C101.196 14.9392 102.016 15.6206 102.589 16.5034C103.162 17.3861 103.449 18.4315 103.449 19.6394C103.449 20.8474 103.155 21.8927 102.566 22.7755C101.993 23.6427 101.172 24.3086 100.104 24.7732L103.751 30H99.7089ZM99.6392 19.6394C99.6392 18.7257 99.345 18.0288 98.7565 17.5487C98.168 17.0531 97.3085 16.8054 96.178 16.8054H93.1116V22.4735H96.178C97.3085 22.4735 98.168 22.2257 98.7565 21.7301C99.345 21.2345 99.6392 20.5376 99.6392 19.6394ZM113.009 13.739H116.773V26.9336H124.926V30H113.009V13.739ZM137.874 26.5155H130.324L128.884 30H125.028L132.276 13.739H135.993L143.264 30H139.314L137.874 26.5155ZM136.689 23.6582L134.111 17.4326L131.532 23.6582H136.689ZM156.891 21.5443C157.82 21.8385 158.548 22.3341 159.074 23.031C159.601 23.7124 159.864 24.5564 159.864 25.5631C159.864 26.9878 159.307 28.0874 158.192 28.8617C157.092 29.6206 155.482 30 153.36 30H144.951V13.739H152.895C154.878 13.739 156.395 14.1184 157.448 14.8773C158.517 15.6361 159.051 16.666 159.051 17.9669C159.051 18.7567 158.858 19.4613 158.47 20.0808C158.099 20.7003 157.572 21.1881 156.891 21.5443ZM148.691 16.5731V20.406H152.431C153.36 20.406 154.065 20.2434 154.545 19.9182C155.025 19.593 155.265 19.1129 155.265 18.4779C155.265 17.843 155.025 17.3706 154.545 17.0609C154.065 16.7357 153.36 16.5731 152.431 16.5731H148.691ZM153.081 27.1659C154.072 27.1659 154.816 27.0033 155.311 26.6781C155.822 26.3529 156.078 25.8496 156.078 25.1682C156.078 23.8208 155.079 23.1471 153.081 23.1471H148.691V27.1659H153.081Z" fill="white"/>
<path d="M30.0638 47.719H26.5538L25.7378 50H24.8923L27.8713 42.0461H28.766L31.745 50H30.8798L30.0638 47.719ZM28.3137 42.7933L26.8389 46.9423H29.7885L28.3137 42.7933ZM43.6625 47.0603V42.0362H44.4785V46.9128C44.4785 48.0336 44.0951 50.1573 41.3422 50.1573C38.5991 50.1573 38.2157 48.0336 38.2157 46.9128V42.0362H39.0219V47.0603C39.0219 48.4761 39.7986 49.3511 41.3422 49.3511C42.8956 49.3511 43.6625 48.4662 43.6625 47.0603ZM58.9366 42.8228H55.6036V50H54.7974V42.8228H51.4742V42.0461H58.9366V42.8228ZM68.8718 41.8888C71.1429 41.8888 72.6177 43.4717 72.6177 46.0279C72.6177 49.0758 70.6808 50.1671 68.8718 50.1671C66.5908 50.1671 65.1259 48.5449 65.1259 46.0279C65.1259 44.74 65.5093 43.6781 66.227 42.9309C66.8956 42.2525 67.8296 41.8888 68.8718 41.8888ZM68.8718 49.3609C70.7103 49.3609 71.8016 48.1615 71.8016 46.0279C71.8016 43.5503 70.3072 42.695 68.8718 42.695C67.4265 42.695 65.9321 43.6388 65.9321 46.0279C65.9321 48.4859 67.4265 49.3609 68.8718 49.3609ZM79.9759 42.0362H81.0279V43.1177C81.0279 43.8256 80.4183 44.2091 79.8186 44.0714V43.7273C80.2708 43.8453 80.6444 43.5503 80.6739 43.1177H79.9759V42.0362ZM95.1603 46.0279C95.1603 48.2204 93.4693 50 91.3947 50H88.4944V42.0461H91.3947C93.4693 42.0461 95.1603 43.8355 95.1603 46.0279ZM89.2907 42.8129V49.2331H91.2866C92.7417 49.2331 94.1771 48.0336 94.3345 46.3524V46.3229V46.3131C94.3345 46.3032 94.3345 46.3032 94.3345 46.2934V46.2836L94.3443 46.2639C94.3443 46.1951 94.3443 46.1164 94.3443 46.0279C94.3443 46.0083 94.3443 45.9788 94.3443 45.9591V45.9395V45.9296V45.9198C94.2951 44.1501 92.8302 42.8129 91.2866 42.8129H89.2907ZM117.045 47.719H113.535L112.719 50H111.873L114.852 42.0461H115.747L118.726 50H117.861L117.045 47.719ZM115.294 42.7933L113.82 46.9423H116.769L115.294 42.7933ZM126.456 42.0461V49.2331H130.949V50H125.659V42.0461H126.456ZM138.646 42.0461V49.2331H143.139V50H137.849V42.0461H138.646Z" fill="white" fill-opacity="0.5"/>
</svg>
