<svg width="20" height="24" viewBox="0 0 20 24" fill="none" xmlns="http://www.w3.org/2000/svg">
<g clip-path="url(#clip0_4173_11806)">
<path d="M3.18884 9.47437C3.06452 9.47437 2.94529 9.42499 2.85739 9.33708C2.76948 9.24917 2.72009 9.12995 2.72009 9.00562V3.2925C2.72108 2.41974 3.06816 1.583 3.68521 0.965778C4.30225 0.348556 5.1389 0.00124056 6.01166 0L14.4187 0C14.8792 0.000562547 15.3235 0.169633 15.6679 0.475313L19.0288 3.46266C19.2277 3.63892 19.3869 3.85545 19.4957 4.09789C19.6046 4.34033 19.6607 4.60315 19.6602 4.86891V9.00328C19.6602 9.1276 19.6109 9.24683 19.523 9.33474C19.435 9.42265 19.3158 9.47203 19.1915 9.47203C19.0672 9.47203 18.9479 9.42265 18.86 9.33474C18.7721 9.24683 18.7227 9.1276 18.7227 9.00328V4.86891C18.7226 4.81328 18.7178 4.75777 18.7082 4.70297C18.6705 4.49456 18.564 4.30479 18.4059 4.16391L15.0454 1.17562C14.8723 1.02281 14.6496 0.938173 14.4187 0.9375H6.01166C5.38746 0.938492 4.78913 1.18696 4.34785 1.62842C3.90656 2.06988 3.65834 2.66831 3.65759 3.2925V9.00562C3.65759 9.12995 3.60821 9.24917 3.5203 9.33708C3.43239 9.42499 3.31316 9.47437 3.18884 9.47437Z" fill="white"/>
<path d="M19.1675 5.08887H16.3672C15.8686 5.08825 15.3906 4.88991 15.0381 4.53736C14.6855 4.18481 14.4872 3.70682 14.4866 3.20824V0.577148C14.4866 0.452828 14.536 0.3336 14.6239 0.245692C14.7118 0.157784 14.831 0.108398 14.9553 0.108398C15.0796 0.108398 15.1989 0.157784 15.2868 0.245692C15.3747 0.3336 15.4241 0.452828 15.4241 0.577148V3.20824C15.4244 3.45826 15.5239 3.69793 15.7007 3.87472C15.8775 4.05151 16.1172 4.151 16.3672 4.15137H19.1675C19.2918 4.15137 19.4111 4.20075 19.499 4.28866C19.5869 4.37657 19.6363 4.4958 19.6363 4.62012C19.6363 4.74444 19.5869 4.86367 19.499 4.95157C19.4111 5.03948 19.2918 5.08887 19.1675 5.08887Z" fill="white"/>
<path d="M4.10947 17.8594H3.18884C3.06452 17.8594 2.94529 17.81 2.85739 17.7221C2.76948 17.6342 2.72009 17.5149 2.72009 17.3906C2.72009 17.2663 2.76948 17.1471 2.85739 17.0592C2.94529 16.9713 3.06452 16.9219 3.18884 16.9219H4.10947C4.23379 16.9219 4.35302 16.9713 4.44092 17.0592C4.52883 17.1471 4.57822 17.2663 4.57822 17.3906C4.57822 17.5149 4.52883 17.6342 4.44092 17.7221C4.35302 17.81 4.23379 17.8594 4.10947 17.8594Z" fill="white"/>
<path d="M3.0674 20.2031H1.98037C1.76421 20.2031 1.55018 20.1604 1.35057 20.0774C1.15097 19.9945 0.969735 19.8729 0.817278 19.7196C0.664821 19.5664 0.54415 19.3845 0.462198 19.1845C0.380247 18.9845 0.338632 18.7702 0.339743 18.5541C0.33984 18.4928 0.343596 18.4316 0.350993 18.3708C0.397961 17.9716 0.589819 17.6036 0.890165 17.3365C1.19051 17.0694 1.57845 16.9219 1.98037 16.9219H2.47443C2.59875 16.9219 2.71798 16.9713 2.80589 17.0592C2.89379 17.1471 2.94318 17.2663 2.94318 17.3906C2.94318 17.5149 2.89379 17.6342 2.80589 17.7221C2.71798 17.81 2.59875 17.8594 2.47443 17.8594H1.98037C1.80868 17.8598 1.64307 17.9229 1.51475 18.037C1.38644 18.1511 1.30429 18.3081 1.28381 18.4786C1.28039 18.5039 1.27867 18.5294 1.27865 18.555C1.27766 18.6478 1.29507 18.74 1.32987 18.8261C1.36468 18.9121 1.41618 18.9905 1.48142 19.0565C1.54667 19.1226 1.62435 19.1751 1.70998 19.211C1.79562 19.2469 1.88752 19.2654 1.98037 19.2656H3.0674C3.19172 19.2656 3.31095 19.315 3.39886 19.4029C3.48676 19.4908 3.53615 19.6101 3.53615 19.7344C3.53615 19.8587 3.48676 19.9779 3.39886 20.0658C3.31095 20.1537 3.19172 20.2031 3.0674 20.2031Z" fill="white"/>
<path d="M0.814575 18.8962C0.690255 18.8962 0.571027 18.8468 0.483119 18.7589C0.395211 18.671 0.345825 18.5518 0.345825 18.4274L0.365981 10.1775C0.366602 9.74274 0.539728 9.32604 0.847337 9.01887C1.15495 8.7117 1.57189 8.53917 2.00661 8.53917H3.18879L19.1915 8.53589C19.3158 8.53589 19.435 8.58527 19.5229 8.67318C19.6108 8.76109 19.6602 8.88032 19.6602 9.00464V16.9551C19.6602 17.0794 19.6108 17.1987 19.5229 17.2866C19.435 17.3745 19.3158 17.4239 19.1915 17.4239C19.0671 17.4239 18.9479 17.3745 18.86 17.2866C18.7721 17.1987 18.7227 17.0794 18.7227 16.9551V9.47104L3.18879 9.47433H2.0052C1.81872 9.47433 1.63988 9.5484 1.50802 9.68027C1.37615 9.81213 1.30208 9.99097 1.30208 10.1775L1.28192 18.4274C1.28192 18.5515 1.23273 18.6705 1.14512 18.7584C1.05752 18.8463 0.938652 18.8958 0.814575 18.8962Z" fill="white"/>
<path d="M3.18886 17.8594H2.47449C2.35017 17.8594 2.23094 17.81 2.14303 17.7221C2.05512 17.6342 2.00574 17.5149 2.00574 17.3906C2.00574 17.2663 2.05512 17.1471 2.14303 17.0592C2.23094 16.9713 2.35017 16.9219 2.47449 16.9219H3.18886H19.1915C19.3158 16.9219 19.4351 16.9713 19.523 17.0592C19.6109 17.1471 19.6603 17.2663 19.6603 17.3906C19.6603 17.5149 19.6109 17.6342 19.523 17.7221C19.4351 17.81 19.3158 17.8594 19.1915 17.8594H3.18886Z" fill="white"/>
<path d="M16.8397 23.9999H5.54282C4.79468 23.9991 4.07743 23.7015 3.54841 23.1725C3.0194 22.6434 2.72182 21.9262 2.72095 21.178V17.4927C2.72095 17.3684 2.77033 17.2492 2.85824 17.1613C2.94615 17.0734 3.06538 17.024 3.1897 17.024C3.31402 17.024 3.43325 17.0734 3.52115 17.1613C3.60906 17.2492 3.65845 17.3684 3.65845 17.4927V21.178C3.65894 21.6777 3.85764 22.1567 4.21092 22.51C4.5642 22.8632 5.04321 23.0619 5.54282 23.0624H16.8397C17.3394 23.0619 17.8184 22.8632 18.1718 22.51C18.5251 22.1567 18.7239 21.6777 18.7245 21.178V16.9551C18.7245 16.8308 18.7739 16.7115 18.8618 16.6236C18.9497 16.5357 19.069 16.4863 19.1933 16.4863C19.3176 16.4863 19.4368 16.5357 19.5247 16.6236C19.6127 16.7115 19.662 16.8308 19.662 16.9551V21.178C19.661 21.9262 19.3634 22.6435 18.8343 23.1725C18.3052 23.7015 17.5879 23.9991 16.8397 23.9999Z" fill="white"/>
<path d="M4.45579 15.6043C4.0372 15.6043 4.01142 15.5996 3.97813 15.594C3.86902 15.5754 3.77001 15.5188 3.69863 15.4342C3.62725 15.3496 3.58811 15.2425 3.58813 15.1318V11.363C3.58813 11.2387 3.63752 11.1195 3.72543 11.0316C3.81334 10.9437 3.93256 10.8943 4.05688 10.8943C4.1812 10.8943 4.30043 10.9437 4.38834 11.0316C4.47625 11.1195 4.52563 11.2387 4.52563 11.363V14.6663C4.77079 14.6663 5.08345 14.6663 5.37548 14.663C5.4998 14.6627 5.61918 14.7117 5.70735 14.7993C5.79552 14.887 5.84526 15.0061 5.84563 15.1304C5.84601 15.2547 5.79698 15.3741 5.70934 15.4622C5.62169 15.5504 5.50261 15.6002 5.37829 15.6005C4.95126 15.6033 4.65782 15.6043 4.45579 15.6043Z" fill="white"/>
<path d="M14.3084 15.6038C13.9402 15.6039 13.577 15.5177 13.2482 15.3521C12.9193 15.1864 12.6338 14.946 12.4147 14.65C12.1956 14.354 12.049 14.0108 11.9866 13.6479C11.9242 13.2849 11.9478 12.9124 12.0554 12.5603C12.1631 12.2081 12.3518 11.8861 12.6065 11.6201C12.8612 11.3541 13.1747 11.1516 13.5218 11.0287C13.869 10.9059 14.2401 10.8661 14.6054 10.9127C14.9707 10.9593 15.32 11.0909 15.6252 11.2969C15.6778 11.3307 15.7231 11.3746 15.7584 11.4261C15.7938 11.4776 15.8185 11.5357 15.8311 11.5969C15.8437 11.6581 15.844 11.7212 15.8318 11.7824C15.8197 11.8437 15.7954 11.902 15.7605 11.9538C15.7255 12.0055 15.6805 12.0498 15.6282 12.084C15.5759 12.1181 15.5173 12.1415 15.4558 12.1526C15.3943 12.1638 15.3312 12.1626 15.2702 12.149C15.2092 12.1354 15.1516 12.1098 15.1006 12.0736C14.9169 11.9497 14.7067 11.8706 14.4868 11.8426C14.267 11.8147 14.0436 11.8386 13.8347 11.9126C13.6258 11.9866 13.4371 12.1086 13.2839 12.2687C13.1307 12.4288 13.0171 12.6226 12.9523 12.8346C12.8876 13.0465 12.8734 13.2707 12.911 13.4891C12.9486 13.7076 13.0368 13.9141 13.1687 14.0922C13.3006 14.2704 13.4724 14.4151 13.6703 14.5148C13.8683 14.6145 14.0868 14.6664 14.3084 14.6663C14.9647 14.6663 15.2928 14.22 15.4142 13.718H14.8081C14.6838 13.718 14.5646 13.6686 14.4767 13.5807C14.3888 13.4928 14.3394 13.3736 14.3394 13.2493C14.3394 13.1249 14.3888 13.0057 14.4767 12.9178C14.5646 12.8299 14.6838 12.7805 14.8081 12.7805H15.9364C16.0607 12.7805 16.18 12.8299 16.2679 12.9178C16.3558 13.0057 16.4052 13.1249 16.4052 13.2493C16.4052 14.6358 15.5431 15.6038 14.3084 15.6038Z" fill="white"/>
<path d="M8.67837 15.6038C8.21257 15.6038 7.75724 15.4657 7.36995 15.2069C6.98266 14.9481 6.68082 14.5803 6.50258 14.1499C6.32435 13.7196 6.27774 13.246 6.36865 12.7892C6.45956 12.3324 6.6839 11.9127 7.0133 11.5834C7.34269 11.2541 7.76236 11.0298 8.21921 10.939C8.67607 10.8482 9.1496 10.8949 9.57991 11.0732C10.0102 11.2515 10.378 11.5534 10.6367 11.9408C10.8954 12.3281 11.0335 12.7835 11.0334 13.2493C11.0327 13.8736 10.7844 14.4722 10.3429 14.9137C9.90136 15.3551 9.30272 15.6033 8.67837 15.6038ZM8.67837 11.8318C8.39801 11.8318 8.12395 11.9149 7.89084 12.0707C7.65774 12.2264 7.47605 12.4478 7.36877 12.7068C7.26148 12.9658 7.23341 13.2508 7.2881 13.5258C7.3428 13.8008 7.4778 14.0534 7.67604 14.2516C7.87428 14.4498 8.12686 14.5848 8.40182 14.6395C8.67679 14.6942 8.9618 14.6662 9.22082 14.5589C9.47983 14.4516 9.70122 14.2699 9.85697 14.0368C10.0127 13.8037 10.0959 13.5296 10.0959 13.2493C10.0956 12.8734 9.94619 12.513 9.68041 12.2472C9.41464 11.9814 9.05423 11.832 8.67837 11.8318Z" fill="white"/>
</g>
<defs>
<clipPath id="clip0_4173_11806">
<rect width="19.3205" height="24" fill="white" transform="translate(0.339722)"/>
</clipPath>
</defs>
</svg>
