<svg width="24" height="24" viewBox="0 0 24 24" fill="none" xmlns="http://www.w3.org/2000/svg">
<path d="M21.4069 0.996654C21.405 0.582445 21.0677 0.24816 20.6535 0.250008C20.2393 0.251856 19.905 0.589137 19.9069 1.00335L19.9157 2.98906C19.9192 3.75756 19.9205 4.28651 19.8822 4.69009C19.4451 4.21896 18.9662 3.78711 18.4515 3.40038C16.6546 2.05032 14.4197 1.25 12 1.25C6.06294 1.25 1.25 6.06294 1.25 12C1.25 17.9371 6.06294 22.75 12 22.75C17.9371 22.75 22.75 17.9371 22.75 12C22.75 11.5858 22.4142 11.25 22 11.25C21.5858 11.25 21.25 11.5858 21.25 12C21.25 17.1086 17.1086 21.25 12 21.25C6.89137 21.25 2.75 17.1086 2.75 12C2.75 6.89137 6.89137 2.75 12 2.75C14.0836 2.75 16.0044 3.43804 17.5505 4.59962C18.0457 4.97173 18.5025 5.39242 18.9136 5.85457C18.8646 5.86231 18.8114 5.86938 18.7535 5.8757C18.3422 5.92062 17.7985 5.91933 16.9891 5.91572L15.0034 5.90686C14.5891 5.90501 14.2519 6.2393 14.25 6.65351C14.2482 7.06772 14.5824 7.405 14.9967 7.40685L17.0257 7.4159C17.7806 7.41929 18.4102 7.42211 18.9164 7.36684C19.4473 7.30886 19.9366 7.17926 20.3617 6.85029C20.4531 6.77952 20.5399 6.7031 20.6215 6.6215C20.7031 6.5399 20.7795 6.45314 20.8503 6.36169C21.1793 5.93661 21.3089 5.44728 21.3668 4.91635C21.4221 4.41017 21.4193 3.7806 21.4159 3.02573L21.4069 0.996654Z" fill="#FAFAFA"/>
</svg>
