<svg width="24" height="24" viewBox="0 0 24 24" fill="none" xmlns="http://www.w3.org/2000/svg">
<path d="M6.56141 3.6695C9.89962 1.52875 14.1616 1.62161 17.3727 3.72326L16.3805 3.84545C15.8331 3.91388 15.447 4.41241 15.5105 4.95981C15.5741 5.46323 16.0042 5.83469 16.4978 5.83469C16.5369 5.83469 20.0364 5.40458 20.0364 5.40458C20.3003 5.37037 20.5398 5.2384 20.7011 5.02824C20.8624 4.81807 20.9357 4.55415 20.9015 4.29022L20.4763 0.873815C20.4079 0.326409 19.9044 -0.0645958 19.3619 0.00871757C18.8145 0.0771434 18.4284 0.575674 18.4968 1.12308L18.6288 2.16413C14.753 -0.470263 9.54771 -0.621777 5.48615 1.98818C0.740331 5.03313 -1.23424 11.0546 0.789207 16.3087C0.940721 16.7046 1.43436 17.1005 2.07952 16.8806C2.60249 16.6997 2.85176 16.1034 2.65137 15.5903C0.970046 11.2159 2.61227 6.20614 6.56141 3.6695Z" fill="#2468E4"/>
<path d="M23.0712 7.69136C22.9197 7.29547 22.4261 6.89957 21.7809 7.11951C21.2579 7.30035 21.0087 7.89664 21.2091 8.40983C22.8953 12.7842 21.2482 17.7939 17.299 20.3306C13.9608 22.4713 9.69887 22.3785 6.48775 20.2768L7.47992 20.1546C8.02733 20.0862 8.41344 19.5877 8.34991 19.0403C8.28637 18.5368 7.85626 18.1654 7.36262 18.1654C7.32352 18.1654 3.82403 18.5955 3.82403 18.5955C3.5601 18.6297 3.32061 18.7617 3.15932 18.9718C2.99803 19.182 2.92472 19.4459 2.95893 19.7099L3.38415 23.1263C3.45257 23.6737 3.95599 24.0647 4.49851 23.9914C5.04592 23.9229 5.43203 23.4244 5.36361 22.877L5.23164 21.836C9.11237 24.4655 14.3176 24.617 18.3841 22.007C23.1201 18.967 25.0947 12.9455 23.0712 7.69136Z" fill="#2468E4"/>
</svg>
